<svg xmlns="http://www.w3.org/2000/svg" viewBox="0 0 44 44" width="44" height="44">
  <rect width="44" height="44" rx="6" fill="#ffffff"/>
  <defs>
    <linearGradient id="hz-fan-icon" x1="0" y1="1" x2="1" y2="0">
      <stop offset="0%" stopColor="#3D8DCA"/>
      <stop offset="55%" stopColor="#399FD9"/>
      <stop offset="100%" stopColor="#38ABE3"/>
    </linearGradient>
  </defs>
  <g transform="translate(22 22)">
    <circle r="20.25" fill="none" stroke="url(#hz-fan-icon)" strokeWidth="1.5"/>
    <g fill="url(#hz-fan-icon)">
      <path d="M -2.5 -3 L -1.15 -16.4 L 1.15 -16.4 L 2.5 -3 Z" transform="rotate(-84)" opacity="0.78"/>
      <path d="M -2.5 -3 L -1.15 -16.4 L 1.15 -16.4 L 2.5 -3 Z" transform="rotate(-67.2)" opacity="0.78"/>
      <path d="M -2.5 -3 L -1.15 -16.4 L 1.15 -16.4 L 2.5 -3 Z" transform="rotate(-50.4)" opacity="0.78"/>
      <path d="M -2.5 -3 L -1.15 -16.4 L 1.15 -16.4 L 2.5 -3 Z" transform="rotate(-33.6)" opacity="0.78"/>
      <path d="M -2.5 -3 L -1.15 -16.4 L 1.15 -16.4 L 2.5 -3 Z" transform="rotate(-16.8)" opacity="0.78"/>
      <path d="M -2.5 -3 L -1.15 -16.4 L 1.15 -16.4 L 2.5 -3 Z" transform="rotate(0)" opacity="1"/>
      <path d="M -2.5 -3 L -1.15 -16.4 L 1.15 -16.4 L 2.5 -3 Z" transform="rotate(16.8)" opacity="0.78"/>
      <path d="M -2.5 -3 L -1.15 -16.4 L 1.15 -16.4 L 2.5 -3 Z" transform="rotate(33.6)" opacity="0.78"/>
      <path d="M -2.5 -3 L -1.15 -16.4 L 1.15 -16.4 L 2.5 -3 Z" transform="rotate(50.4)" opacity="0.78"/>
      <path d="M -2.5 -3 L -1.15 -16.4 L 1.15 -16.4 L 2.5 -3 Z" transform="rotate(67.2)" opacity="0.78"/>
      <path d="M -2.5 -3 L -1.15 -16.4 L 1.15 -16.4 L 2.5 -3 Z" transform="rotate(84)" opacity="0.78"/>
    </g>
    <circle cy="-1" r="3.1" fill="url(#hz-fan-icon)"/>
    <rect x="-14.5" y="1.9" width="29" height="1.4" rx="0.7" fill="url(#hz-fan-icon)" opacity="0.85"/>
  </g>
</svg>
